<mxfile host="app.diagrams.net" modified="2022-04-22T00:58:43.319Z" agent="5.0 (Windows NT 10.0; Win64; x64) AppleWebKit/537.36 (KHTML, like Gecko) Chrome/100.0.4896.127 Safari/537.36 Edg/100.0.1185.44" etag="5BKKb7ObX2oc3EsQUTyW" version="17.4.6" type="github">
  <diagram id="C5RBs43oDa-KdzZeNtuy" name="Page-1">
    <mxGraphModel dx="1695" dy="492" grid="1" gridSize="10" guides="1" tooltips="1" connect="1" arrows="1" fold="1" page="1" pageScale="1" pageWidth="827" pageHeight="1169" math="0" shadow="0">
      <root>
        <mxCell id="WIyWlLk6GJQsqaUBKTNV-0" />
        <mxCell id="WIyWlLk6GJQsqaUBKTNV-1" parent="WIyWlLk6GJQsqaUBKTNV-0" />
        <mxCell id="9xgiGDTQeDfuc2FrEo8u-0" value="山西省建模大宽表" style="rounded=0;whiteSpace=wrap;html=1;" parent="WIyWlLk6GJQsqaUBKTNV-1" vertex="1">
          <mxGeometry x="-30" y="40" width="120" height="20" as="geometry" />
        </mxCell>
        <mxCell id="9xgiGDTQeDfuc2FrEo8u-1" value="用户综合信息汇总月中间表" style="rounded=0;whiteSpace=wrap;html=1;" parent="WIyWlLk6GJQsqaUBKTNV-1" vertex="1">
          <mxGeometry x="-30" y="70" width="120" height="30" as="geometry" />
        </mxCell>
        <mxCell id="9xgiGDTQeDfuc2FrEo8u-2" value="家宽离网预警模型" style="rounded=0;whiteSpace=wrap;html=1;" parent="WIyWlLk6GJQsqaUBKTNV-1" vertex="1">
          <mxGeometry x="-30" y="110" width="120" height="20" as="geometry" />
        </mxCell>
        <mxCell id="9xgiGDTQeDfuc2FrEo8u-3" value="携号转网" style="rounded=0;whiteSpace=wrap;html=1;" parent="WIyWlLk6GJQsqaUBKTNV-1" vertex="1">
          <mxGeometry x="-30" y="190" width="120" height="20" as="geometry" />
        </mxCell>
        <mxCell id="9xgiGDTQeDfuc2FrEo8u-4" value="中高端客户离网和价值流失预警模型" style="rounded=0;whiteSpace=wrap;html=1;" parent="WIyWlLk6GJQsqaUBKTNV-1" vertex="1">
          <mxGeometry x="-30" y="140" width="120" height="40" as="geometry" />
        </mxCell>
        <mxCell id="9xgiGDTQeDfuc2FrEo8u-5" value="家庭宽带用户表" style="rounded=0;whiteSpace=wrap;html=1;" parent="WIyWlLk6GJQsqaUBKTNV-1" vertex="1">
          <mxGeometry x="-30" y="220" width="120" height="20" as="geometry" />
        </mxCell>
        <mxCell id="9xgiGDTQeDfuc2FrEo8u-6" value="欠费单停客户表" style="rounded=0;whiteSpace=wrap;html=1;" parent="WIyWlLk6GJQsqaUBKTNV-1" vertex="1">
          <mxGeometry x="-30" y="250" width="120" height="20" as="geometry" />
        </mxCell>
        <mxCell id="9xgiGDTQeDfuc2FrEo8u-7" value="家庭圈用户信息表" style="rounded=0;whiteSpace=wrap;html=1;" parent="WIyWlLk6GJQsqaUBKTNV-1" vertex="1">
          <mxGeometry x="-30" y="280" width="120" height="20" as="geometry" />
        </mxCell>
        <mxCell id="9xgiGDTQeDfuc2FrEo8u-14" value="" style="endArrow=classic;html=1;rounded=0;" parent="WIyWlLk6GJQsqaUBKTNV-1" edge="1">
          <mxGeometry width="50" height="50" relative="1" as="geometry">
            <mxPoint x="130" y="169.5" as="sourcePoint" />
            <mxPoint x="190" y="169.5" as="targetPoint" />
          </mxGeometry>
        </mxCell>
        <mxCell id="9xgiGDTQeDfuc2FrEo8u-16" value="tb_dmr_jiakuan_olf_info_3_all" style="rounded=0;whiteSpace=wrap;html=1;" parent="WIyWlLk6GJQsqaUBKTNV-1" vertex="1">
          <mxGeometry x="160" y="220" width="180" height="30" as="geometry" />
        </mxCell>
        <mxCell id="9xgiGDTQeDfuc2FrEo8u-19" value="汇总、合并" style="ellipse;whiteSpace=wrap;html=1;" parent="WIyWlLk6GJQsqaUBKTNV-1" vertex="1">
          <mxGeometry x="190" y="145" width="120" height="50" as="geometry" />
        </mxCell>
        <mxCell id="9xgiGDTQeDfuc2FrEo8u-22" value="数据预处理" style="rounded=0;whiteSpace=wrap;html=1;" parent="WIyWlLk6GJQsqaUBKTNV-1" vertex="1">
          <mxGeometry x="160" y="270" width="180" height="30" as="geometry" />
        </mxCell>
        <mxCell id="9xgiGDTQeDfuc2FrEo8u-25" value="测试集" style="rounded=0;whiteSpace=wrap;html=1;" parent="WIyWlLk6GJQsqaUBKTNV-1" vertex="1">
          <mxGeometry x="160" y="390" width="180" height="30" as="geometry" />
        </mxCell>
        <mxCell id="9xgiGDTQeDfuc2FrEo8u-26" value="抽样" style="ellipse;whiteSpace=wrap;html=1;" parent="WIyWlLk6GJQsqaUBKTNV-1" vertex="1">
          <mxGeometry x="190" y="320" width="120" height="50" as="geometry" />
        </mxCell>
        <mxCell id="9xgiGDTQeDfuc2FrEo8u-28" value="" style="edgeStyle=segmentEdgeStyle;endArrow=classic;html=1;rounded=0;exitX=1;exitY=0.5;exitDx=0;exitDy=0;entryX=0.5;entryY=0;entryDx=0;entryDy=0;" parent="WIyWlLk6GJQsqaUBKTNV-1" source="9xgiGDTQeDfuc2FrEo8u-26" target="9xgiGDTQeDfuc2FrEo8u-32" edge="1">
          <mxGeometry width="50" height="50" relative="1" as="geometry">
            <mxPoint x="390" y="350" as="sourcePoint" />
            <mxPoint x="440" y="430" as="targetPoint" />
          </mxGeometry>
        </mxCell>
        <mxCell id="9xgiGDTQeDfuc2FrEo8u-29" value="" style="edgeStyle=segmentEdgeStyle;endArrow=classic;html=1;rounded=0;exitX=0;exitY=0.5;exitDx=0;exitDy=0;entryX=0.5;entryY=0;entryDx=0;entryDy=0;" parent="WIyWlLk6GJQsqaUBKTNV-1" source="9xgiGDTQeDfuc2FrEo8u-26" target="9xgiGDTQeDfuc2FrEo8u-31" edge="1">
          <mxGeometry width="50" height="50" relative="1" as="geometry">
            <mxPoint x="100" y="390" as="sourcePoint" />
            <mxPoint x="30" y="435" as="targetPoint" />
          </mxGeometry>
        </mxCell>
        <mxCell id="9xgiGDTQeDfuc2FrEo8u-31" value="训练集" style="rounded=0;whiteSpace=wrap;html=1;" parent="WIyWlLk6GJQsqaUBKTNV-1" vertex="1">
          <mxGeometry x="-60" y="390" width="180" height="30" as="geometry" />
        </mxCell>
        <mxCell id="9xgiGDTQeDfuc2FrEo8u-32" value="验证集" style="rounded=0;whiteSpace=wrap;html=1;" parent="WIyWlLk6GJQsqaUBKTNV-1" vertex="1">
          <mxGeometry x="370" y="390" width="180" height="30" as="geometry" />
        </mxCell>
        <mxCell id="9xgiGDTQeDfuc2FrEo8u-33" value="RF" style="ellipse;whiteSpace=wrap;html=1;" parent="WIyWlLk6GJQsqaUBKTNV-1" vertex="1">
          <mxGeometry x="-20" y="510" width="100" height="40" as="geometry" />
        </mxCell>
        <mxCell id="9xgiGDTQeDfuc2FrEo8u-36" value="模型规则" style="shape=ext;double=1;rounded=0;whiteSpace=wrap;html=1;" parent="WIyWlLk6GJQsqaUBKTNV-1" vertex="1">
          <mxGeometry x="-20" y="555" width="105" height="30" as="geometry" />
        </mxCell>
        <mxCell id="9xgiGDTQeDfuc2FrEo8u-37" value="验证" style="ellipse;whiteSpace=wrap;html=1;" parent="WIyWlLk6GJQsqaUBKTNV-1" vertex="1">
          <mxGeometry x="200" y="520" width="100" height="40" as="geometry" />
        </mxCell>
        <mxCell id="9xgiGDTQeDfuc2FrEo8u-38" value="评估" style="ellipse;whiteSpace=wrap;html=1;" parent="WIyWlLk6GJQsqaUBKTNV-1" vertex="1">
          <mxGeometry x="414" y="520" width="100" height="40" as="geometry" />
        </mxCell>
        <mxCell id="9xgiGDTQeDfuc2FrEo8u-52" value="Container" style="swimlane;" parent="WIyWlLk6GJQsqaUBKTNV-1" vertex="1">
          <mxGeometry x="-70" y="10" width="200" height="300" as="geometry">
            <mxRectangle x="-70" y="10" width="90" height="23" as="alternateBounds" />
          </mxGeometry>
        </mxCell>
        <mxCell id="9xgiGDTQeDfuc2FrEo8u-53" value="" style="edgeStyle=elbowEdgeStyle;elbow=vertical;endArrow=classic;html=1;rounded=0;entryX=0.5;entryY=0;entryDx=0;entryDy=0;exitX=0.5;exitY=1;exitDx=0;exitDy=0;" parent="WIyWlLk6GJQsqaUBKTNV-1" source="9xgiGDTQeDfuc2FrEo8u-22" target="9xgiGDTQeDfuc2FrEo8u-26" edge="1">
          <mxGeometry width="50" height="50" relative="1" as="geometry">
            <mxPoint x="420" y="350" as="sourcePoint" />
            <mxPoint x="330" y="350" as="targetPoint" />
          </mxGeometry>
        </mxCell>
        <mxCell id="9xgiGDTQeDfuc2FrEo8u-54" value="" style="edgeStyle=elbowEdgeStyle;elbow=vertical;endArrow=classic;html=1;rounded=0;entryX=0.5;entryY=0;entryDx=0;entryDy=0;exitX=0.5;exitY=1;exitDx=0;exitDy=0;" parent="WIyWlLk6GJQsqaUBKTNV-1" source="9xgiGDTQeDfuc2FrEo8u-26" target="9xgiGDTQeDfuc2FrEo8u-25" edge="1">
          <mxGeometry width="50" height="50" relative="1" as="geometry">
            <mxPoint x="250" y="410" as="sourcePoint" />
            <mxPoint x="260" y="370" as="targetPoint" />
          </mxGeometry>
        </mxCell>
        <mxCell id="9xgiGDTQeDfuc2FrEo8u-56" value="" style="edgeStyle=elbowEdgeStyle;elbow=vertical;endArrow=classic;html=1;rounded=0;entryX=0.5;entryY=0;entryDx=0;entryDy=0;exitX=0.5;exitY=1;exitDx=0;exitDy=0;" parent="WIyWlLk6GJQsqaUBKTNV-1" source="9xgiGDTQeDfuc2FrEo8u-16" target="9xgiGDTQeDfuc2FrEo8u-22" edge="1">
          <mxGeometry width="50" height="50" relative="1" as="geometry">
            <mxPoint x="260" y="420" as="sourcePoint" />
            <mxPoint x="260" y="450" as="targetPoint" />
          </mxGeometry>
        </mxCell>
        <mxCell id="9xgiGDTQeDfuc2FrEo8u-57" value="" style="edgeStyle=elbowEdgeStyle;elbow=vertical;endArrow=classic;html=1;rounded=0;exitX=0.5;exitY=1;exitDx=0;exitDy=0;" parent="WIyWlLk6GJQsqaUBKTNV-1" source="9xgiGDTQeDfuc2FrEo8u-19" edge="1">
          <mxGeometry width="50" height="50" relative="1" as="geometry">
            <mxPoint x="260" y="275" as="sourcePoint" />
            <mxPoint x="250" y="220" as="targetPoint" />
          </mxGeometry>
        </mxCell>
        <mxCell id="9xgiGDTQeDfuc2FrEo8u-58" value="" style="edgeStyle=elbowEdgeStyle;elbow=vertical;endArrow=classic;html=1;rounded=0;exitX=0.5;exitY=1;exitDx=0;exitDy=0;entryX=0.5;entryY=0;entryDx=0;entryDy=0;" parent="WIyWlLk6GJQsqaUBKTNV-1" source="9xgiGDTQeDfuc2FrEo8u-38" target="9xgiGDTQeDfuc2FrEo8u-60" edge="1">
          <mxGeometry width="50" height="50" relative="1" as="geometry">
            <mxPoint x="260" y="380" as="sourcePoint" />
            <mxPoint x="464" y="600" as="targetPoint" />
          </mxGeometry>
        </mxCell>
        <mxCell id="9xgiGDTQeDfuc2FrEo8u-60" value="输出得分" style="rounded=0;whiteSpace=wrap;html=1;" parent="WIyWlLk6GJQsqaUBKTNV-1" vertex="1">
          <mxGeometry x="374" y="660" width="180" height="30" as="geometry" />
        </mxCell>
        <mxCell id="9xgiGDTQeDfuc2FrEo8u-61" value="" style="edgeStyle=segmentEdgeStyle;endArrow=classic;html=1;rounded=0;exitX=0.5;exitY=1;exitDx=0;exitDy=0;entryX=0.5;entryY=0;entryDx=0;entryDy=0;" parent="WIyWlLk6GJQsqaUBKTNV-1" source="9xgiGDTQeDfuc2FrEo8u-31" target="9xgiGDTQeDfuc2FrEo8u-65" edge="1">
          <mxGeometry width="50" height="50" relative="1" as="geometry">
            <mxPoint x="160" y="460" as="sourcePoint" />
            <mxPoint x="-5" y="460" as="targetPoint" />
          </mxGeometry>
        </mxCell>
        <mxCell id="9xgiGDTQeDfuc2FrEo8u-63" value="trn1" style="rounded=0;whiteSpace=wrap;html=1;" parent="WIyWlLk6GJQsqaUBKTNV-1" vertex="1">
          <mxGeometry x="-70" y="460" width="40" height="30" as="geometry" />
        </mxCell>
        <mxCell id="9xgiGDTQeDfuc2FrEo8u-64" value="trn2" style="rounded=0;whiteSpace=wrap;html=1;" parent="WIyWlLk6GJQsqaUBKTNV-1" vertex="1">
          <mxGeometry x="-30" y="460" width="40" height="30" as="geometry" />
        </mxCell>
        <mxCell id="9xgiGDTQeDfuc2FrEo8u-65" value="trn3" style="rounded=0;whiteSpace=wrap;html=1;" parent="WIyWlLk6GJQsqaUBKTNV-1" vertex="1">
          <mxGeometry x="10" y="460" width="40" height="30" as="geometry" />
        </mxCell>
        <mxCell id="9xgiGDTQeDfuc2FrEo8u-66" value="trn4" style="rounded=0;whiteSpace=wrap;html=1;" parent="WIyWlLk6GJQsqaUBKTNV-1" vertex="1">
          <mxGeometry x="50" y="460" width="40" height="30" as="geometry" />
        </mxCell>
        <mxCell id="9xgiGDTQeDfuc2FrEo8u-67" value="test" style="rounded=0;whiteSpace=wrap;html=1;" parent="WIyWlLk6GJQsqaUBKTNV-1" vertex="1">
          <mxGeometry x="90" y="460" width="40" height="30" as="geometry" />
        </mxCell>
        <mxCell id="9xgiGDTQeDfuc2FrEo8u-68" value="" style="edgeStyle=segmentEdgeStyle;endArrow=classic;html=1;rounded=0;exitX=0.5;exitY=1;exitDx=0;exitDy=0;entryX=0.5;entryY=0;entryDx=0;entryDy=0;" parent="WIyWlLk6GJQsqaUBKTNV-1" source="9xgiGDTQeDfuc2FrEo8u-65" target="9xgiGDTQeDfuc2FrEo8u-33" edge="1">
          <mxGeometry width="50" height="50" relative="1" as="geometry">
            <mxPoint x="40" y="430" as="sourcePoint" />
            <mxPoint x="40" y="470" as="targetPoint" />
          </mxGeometry>
        </mxCell>
        <mxCell id="9xgiGDTQeDfuc2FrEo8u-70" value="" style="strokeWidth=2;html=1;shape=mxgraph.flowchart.annotation_1;align=left;pointerEvents=1;" parent="WIyWlLk6GJQsqaUBKTNV-1" vertex="1">
          <mxGeometry x="-40" y="530" width="17.5" height="80" as="geometry" />
        </mxCell>
        <mxCell id="9xgiGDTQeDfuc2FrEo8u-72" value="5-折交叉验证训练" style="text;strokeColor=none;fillColor=none;align=left;verticalAlign=middle;spacingLeft=4;spacingRight=4;overflow=hidden;points=[[0,0.5],[1,0.5]];portConstraint=eastwest;rotatable=0;" parent="WIyWlLk6GJQsqaUBKTNV-1" vertex="1">
          <mxGeometry x="90" y="490" width="110" height="30" as="geometry" />
        </mxCell>
        <mxCell id="9xgiGDTQeDfuc2FrEo8u-73" value="输出结果:dmresult3.tb_dmr_gjmx_jk_lost_user_mon" style="rounded=0;whiteSpace=wrap;html=1;" parent="WIyWlLk6GJQsqaUBKTNV-1" vertex="1">
          <mxGeometry x="114" y="620" width="300" height="30" as="geometry" />
        </mxCell>
        <mxCell id="9xgiGDTQeDfuc2FrEo8u-74" value="" style="edgeStyle=elbowEdgeStyle;elbow=vertical;endArrow=classic;html=1;rounded=0;exitX=0.5;exitY=1;exitDx=0;exitDy=0;entryX=0.444;entryY=0.033;entryDx=0;entryDy=0;entryPerimeter=0;" parent="WIyWlLk6GJQsqaUBKTNV-1" source="9xgiGDTQeDfuc2FrEo8u-37" target="9xgiGDTQeDfuc2FrEo8u-73" edge="1">
          <mxGeometry width="50" height="50" relative="1" as="geometry">
            <mxPoint x="474" y="570" as="sourcePoint" />
            <mxPoint x="474" y="620" as="targetPoint" />
          </mxGeometry>
        </mxCell>
        <mxCell id="9xgiGDTQeDfuc2FrEo8u-75" value="" style="edgeStyle=elbowEdgeStyle;elbow=vertical;endArrow=classic;html=1;rounded=0;exitX=0;exitY=0.5;exitDx=0;exitDy=0;entryX=1;entryY=0.5;entryDx=0;entryDy=0;entryPerimeter=0;exitPerimeter=0;" parent="WIyWlLk6GJQsqaUBKTNV-1" source="9xgiGDTQeDfuc2FrEo8u-70" target="9xgiGDTQeDfuc2FrEo8u-70" edge="1">
          <mxGeometry width="50" height="50" relative="1" as="geometry">
            <mxPoint x="260" y="570" as="sourcePoint" />
            <mxPoint x="259.9200000000001" y="610.99" as="targetPoint" />
          </mxGeometry>
        </mxCell>
        <mxCell id="9xgiGDTQeDfuc2FrEo8u-76" value="" style="edgeStyle=elbowEdgeStyle;elbow=vertical;endArrow=classic;html=1;rounded=0;exitX=1;exitY=1;exitDx=0;exitDy=0;exitPerimeter=0;" parent="WIyWlLk6GJQsqaUBKTNV-1" source="9xgiGDTQeDfuc2FrEo8u-70" edge="1">
          <mxGeometry width="50" height="50" relative="1" as="geometry">
            <mxPoint x="260" y="570" as="sourcePoint" />
            <mxPoint x="460" y="608" as="targetPoint" />
          </mxGeometry>
        </mxCell>
        <mxCell id="9xgiGDTQeDfuc2FrEo8u-77" value="" style="edgeStyle=elbowEdgeStyle;elbow=vertical;endArrow=classic;html=1;rounded=0;entryX=0.5;entryY=0;entryDx=0;entryDy=0;exitX=0.5;exitY=1;exitDx=0;exitDy=0;" parent="WIyWlLk6GJQsqaUBKTNV-1" source="9xgiGDTQeDfuc2FrEo8u-25" target="9xgiGDTQeDfuc2FrEo8u-37" edge="1">
          <mxGeometry width="50" height="50" relative="1" as="geometry">
            <mxPoint x="260" y="380" as="sourcePoint" />
            <mxPoint x="260" y="400" as="targetPoint" />
          </mxGeometry>
        </mxCell>
        <mxCell id="9xgiGDTQeDfuc2FrEo8u-79" value="" style="edgeStyle=elbowEdgeStyle;elbow=vertical;endArrow=classic;html=1;rounded=0;entryX=0.5;entryY=0;entryDx=0;entryDy=0;exitX=0.5;exitY=1;exitDx=0;exitDy=0;" parent="WIyWlLk6GJQsqaUBKTNV-1" edge="1">
          <mxGeometry width="50" height="50" relative="1" as="geometry">
            <mxPoint x="463.5" y="420" as="sourcePoint" />
            <mxPoint x="463.5" y="520" as="targetPoint" />
          </mxGeometry>
        </mxCell>
      </root>
    </mxGraphModel>
  </diagram>
</mxfile>
